<svg width="72" height="77" viewBox="0 0 72 77" fill="none" xmlns="http://www.w3.org/2000/svg">
<path d="M66.3311 49.8185C66.7693 51.4867 67 53.0391 67 54.4872C67 58.9359 65.1778 62.8168 61.522 66.1185C57.8661 69.4318 52.6648 71.5866 45.9066 72.5829C44.9609 72.7451 43.8077 72.861 42.4237 72.9189C41.0398 72.9768 40.2902 73 40.1864 73C37.4762 73 34.7083 72.664 31.8828 72.0037C26.0126 70.5556 21.388 68.2733 18.0205 65.1686C13.9263 61.4498 11.1124 57.6731 9.59003 53.8617C8.06771 50.0502 7.30655 45.393 7.30655 39.8902C7.30655 37.2257 7.66406 34.6886 8.39062 32.302C8.9442 30.4137 9.85528 28.2937 11.1354 25.9651C13.7879 21.2963 17.2824 17.7166 21.5956 15.249C25.9089 12.7698 30.9833 11.5418 36.7958 11.5418C38.8947 11.5418 41.109 11.704 43.4386 12.04L48.4208 12.8741L50.8311 13.2911C53.2645 13.6271 55.2597 13.7893 56.8051 13.7893C58.6849 13.7893 60.2188 13.5808 61.4182 13.1637C62.606 12.7466 63.7593 12.0052 64.8664 10.951C65.2009 12.3991 65.3624 13.7893 65.3624 15.1216C65.3624 15.8978 65.3393 16.5118 65.2816 16.952C65.224 17.3922 65.1202 18.041 64.9472 18.8751C64.3359 21.6555 63.5056 23.7292 62.4561 25.0846C61.4066 26.4516 59.8036 27.5175 57.6354 28.2937C55.9747 28.8497 54.5677 29.1278 53.4029 29.1278C50.3006 29.1278 47.256 27.3784 44.269 23.8682L43.0234 22.1189C41.478 19.9525 40.244 18.4928 39.333 17.7398C38.4219 16.9867 37.4647 16.616 36.4728 16.616C36.2537 16.616 35.6194 16.6971 34.5584 16.8709C33.5089 17.0331 32.5632 17.7513 31.7329 19.0025C30.9025 20.2537 30.0491 22.4896 29.1611 25.7218C28.769 27.112 28.4922 28.4327 28.3307 29.6838C28.1693 30.935 28.077 32.6148 28.077 34.7349C28.077 35.9629 28.1231 37.7817 28.2039 40.203C28.2846 42.6242 28.3307 44.0839 28.3307 44.5821L28.4922 46.6674L28.6536 48.2545L29.0688 51.5099C29.2879 53.4562 29.484 54.858 29.6455 55.7268C29.8069 56.5841 30.0837 57.4877 30.4758 58.4377C31.583 61.4961 33.1283 63.8363 35.1235 65.4466C36.9457 66.8947 38.9754 67.613 41.1897 67.613C42.9081 67.613 44.442 67.1843 45.8028 66.3155C47.1637 65.4582 48.167 64.3113 48.8359 62.8979C49.5048 61.4846 49.8278 60.1059 49.8278 58.7737C49.8278 57.1634 49.4126 55.7963 48.5822 54.6842C47.1406 52.7379 45.3992 51.7648 43.3463 51.7648C42.2969 51.7648 41.4089 51.9849 40.6938 52.4367C40.5785 51.4404 40.6823 50.4441 40.9821 49.471C41.282 48.4978 41.8817 47.2351 42.7697 45.6711C44.8225 42.1724 48.6399 40.4115 54.2333 40.4115C57.1626 40.4115 59.6882 41.2456 61.7872 42.9139C63.8862 44.5821 65.4085 46.8875 66.3542 49.8417L66.3311 49.8185Z" fill="#AC1014"/>
<path d="M64.0246 42.8675C64.4628 44.5358 64.6935 46.0881 64.6935 47.5363C64.6935 51.9849 62.8713 55.8658 59.2154 59.1676C55.5595 62.4809 50.3583 64.6357 43.6001 65.632C42.6544 65.7942 41.5011 65.91 40.1172 65.9679C38.7333 66.0259 37.9836 66.049 37.8798 66.049C35.1696 66.049 32.4018 65.7131 29.5763 65.0527C23.7061 63.6046 19.0815 61.3224 15.7139 58.2176C11.6198 54.4988 8.8058 50.7221 7.28348 46.9107C5.76116 43.0992 5 38.4421 5 32.9392C5 30.2747 5.35751 27.7376 6.08408 25.3511C6.63765 23.4627 7.54873 21.3427 8.82887 19.0141C11.4814 14.3454 14.9758 10.7656 19.2891 8.29802C23.6023 5.81884 28.6767 4.59083 34.4892 4.59083C36.5882 4.59083 38.8025 4.75302 41.1321 5.08899L46.1142 5.9231L48.5246 6.34016C50.958 6.67613 52.9531 6.83831 54.4985 6.83831C56.3783 6.83831 57.9122 6.62978 59.1116 6.21273C60.2995 5.79567 61.4528 5.05423 62.5599 4C62.8943 5.44812 63.0558 6.83831 63.0558 8.17058C63.0558 8.94678 63.0327 9.56078 62.9751 10.001C62.9174 10.4412 62.8136 11.09 62.6406 11.9241C62.0294 14.7045 61.199 16.7782 60.1496 18.1336C59.1001 19.5007 57.497 20.5665 55.3289 21.3427C53.6682 21.8988 52.2612 22.1768 51.0964 22.1768C47.994 22.1768 44.9494 20.4275 41.9624 16.9172L40.7169 15.1679C39.1715 13.0015 37.9375 11.5418 37.0264 10.7888C36.1153 10.0358 35.1581 9.66504 34.1663 9.66504C33.9472 9.66504 33.3129 9.74614 32.2519 9.91991C31.2024 10.0821 30.2567 10.8004 29.4263 12.0515C28.596 13.3027 27.7426 15.5386 26.8545 18.7708C26.4624 20.161 26.1856 21.4817 26.0242 22.7329C25.8627 23.984 25.7705 25.6639 25.7705 27.7839C25.7705 29.0119 25.8166 30.8308 25.8973 33.252C25.978 35.6733 26.0242 37.133 26.0242 37.6311L26.1856 39.7164L26.3471 41.3036L26.7623 44.5589C26.9814 46.5052 27.1775 47.907 27.3389 48.7759C27.5004 49.6331 27.7772 50.5368 28.1693 51.4867C29.2764 54.5452 30.8218 56.8853 32.817 58.4956C34.6391 59.9437 36.6689 60.662 38.8832 60.662C40.6016 60.662 42.1354 60.2334 43.4963 59.3645C44.8571 58.5072 45.8605 57.3603 46.5294 55.9469C47.1983 54.5336 47.5212 53.155 47.5212 51.8227C47.5212 50.2124 47.106 48.8454 46.2757 47.7332C44.8341 45.7869 43.0926 44.8138 41.0398 44.8138C39.9903 44.8138 39.1023 45.0339 38.3873 45.4857C38.2719 44.4894 38.3757 43.4931 38.6756 42.52C38.9754 41.5468 39.5751 40.2841 40.4632 38.7201C42.516 35.2215 46.3333 33.4605 51.9267 33.4605C54.856 33.4605 57.3817 34.2947 59.4807 35.9629C61.5796 37.6311 63.1019 39.9365 64.0476 42.8907L64.0246 42.8675Z" fill="#E0C24A"/>
</svg>
