<svg width="414" height="414" viewBox="0 0 414 414" fill="none" xmlns="http://www.w3.org/2000/svg">
<path d="M413.803 198.23C413.737 196.875 413.688 195.52 413.58 194.164C413.531 193.272 413.448 192.437 413.398 191.618L413.324 190.726C412.993 186.684 412.622 183.106 412.183 179.758C406.152 134.664 385.488 92.7932 353.363 60.5721C320.782 28.0214 278.276 7.26303 232.57 1.58164C186.864 -4.09975 140.568 5.62018 101.008 29.2036C61.4474 52.7871 30.8817 88.8873 14.1477 131.792C-2.58639 174.696 -4.53319 221.955 8.61467 266.091C21.7625 310.226 49.2544 348.718 86.7405 375.475C124.227 402.232 169.566 415.726 215.585 413.823C261.604 411.92 305.673 394.728 340.821 364.967C375.969 335.206 400.188 294.575 409.646 249.505C412.324 236.446 413.763 223.164 413.944 209.834L413.994 208.479C413.994 207.991 413.994 207.495 413.994 206.999C414.027 204.098 413.927 201.131 413.803 198.23ZM329.896 329.393C323.922 329.23 318.098 327.487 313.017 324.343C303.248 318.277 295.053 309.986 289.101 300.148C283.149 290.311 279.609 279.204 278.771 267.737C278.657 261.854 280.118 256.047 283.003 250.918C289.815 238.984 306.429 231.562 326.3 231.562H326.35C338.628 231.413 350.742 234.388 361.555 240.207C366.564 242.631 370.778 246.434 373.699 251.171C376.621 255.907 378.128 261.38 378.045 266.944C377.369 278.598 373.721 289.884 367.448 299.73C361.108 310.797 347.726 329.393 329.896 329.393ZM206.973 392.42C174.736 392.213 158.378 380.485 158.353 357.542C158.903 342.18 164.176 327.36 173.455 315.103C177.103 309.385 182.017 304.583 187.818 301.067C193.618 297.552 200.15 295.418 206.907 294.829C213.661 295.419 220.188 297.555 225.984 301.07C231.78 304.586 236.69 309.387 240.334 315.103C249.609 327.362 254.895 342.173 255.478 357.534C255.461 380.477 239.095 392.213 206.973 392.42ZM46.3164 299.705C40.0536 289.878 36.4115 278.61 35.7363 266.977C35.6483 261.402 37.1581 255.919 40.0877 251.175C43.0172 246.432 47.2441 242.626 52.2681 240.207C63.0728 234.39 75.1771 231.41 87.4478 231.546H87.4972C107.335 231.546 123.975 238.984 130.861 250.935C133.714 256.074 135.155 261.877 135.035 267.754C134.209 279.212 130.683 290.312 124.743 300.146C118.804 309.981 110.621 318.269 100.863 324.334C95.7545 327.515 89.8853 329.264 83.8688 329.401C66.0805 329.401 52.706 310.797 46.3164 299.705ZM83.8355 84.6227H83.9349C89.9137 84.7858 95.743 86.528 100.83 89.6724C110.591 95.7401 118.776 104.033 124.716 113.871C130.655 123.71 134.18 134.815 135.002 146.278C135.117 152.158 133.674 157.963 130.819 163.105C123.959 175.056 107.369 182.453 87.4644 182.453C75.1816 182.611 63.0614 179.633 52.2515 173.8C47.2307 171.386 43.0056 167.586 40.0761 162.848C37.1465 158.11 35.635 152.633 35.7196 147.063C36.3986 135.414 40.0498 124.132 46.325 114.293C52.7311 103.218 66.0968 84.6227 83.8355 84.6227ZM206.923 21.5954C239.161 21.802 255.461 33.5378 255.502 56.4478C254.928 71.8098 249.647 86.6245 240.376 98.8876C237.182 104.998 232.375 110.117 226.477 113.689C220.579 117.261 213.815 119.149 206.919 119.149C200.024 119.149 193.26 117.261 187.362 113.689C181.464 110.117 176.657 104.998 173.463 98.8876C164.178 86.6364 158.901 71.818 158.353 56.4561C158.378 33.5379 174.719 21.802 206.923 21.5954ZM329.962 84.6227C347.701 84.6227 361.108 103.227 367.514 114.31C373.774 124.141 377.411 135.411 378.078 147.046C378.17 152.612 376.668 158.089 373.749 162.829C370.83 167.569 366.616 171.376 361.604 173.8C350.769 179.623 338.634 182.601 326.334 182.453C306.495 182.453 289.864 175.056 283.003 163.097C280.12 157.955 278.659 152.138 278.771 146.245C279.601 134.777 283.134 123.669 289.08 113.828C295.027 103.987 303.217 95.6923 312.984 89.6227C318.069 86.489 323.892 84.753 329.863 84.5897L329.962 84.6227ZM206.923 252.398C197.945 252.403 189.167 249.745 181.7 244.761C174.232 239.777 168.411 232.69 164.972 224.398C161.533 216.105 160.631 206.98 162.38 198.174C164.129 189.369 168.451 181.281 174.799 174.932C181.146 168.583 189.234 164.259 198.04 162.507C206.846 160.754 215.973 161.653 224.268 165.088C232.563 168.524 239.652 174.342 244.64 181.806C249.627 189.271 252.289 198.047 252.287 207.024C252.27 219.047 247.484 230.573 238.981 239.074C230.477 247.575 218.948 252.358 206.923 252.373V252.398Z" fill="white"/>
</svg>
