<svg width="417" height="59" viewBox="0 0 417 59" fill="none" xmlns="http://www.w3.org/2000/svg">
<g clip-path="url(#clip0_128027_322)">
<path d="M49.6842 39.101C50.0392 40.4461 50.226 41.6978 50.226 42.8654C50.226 46.4523 48.7502 49.5815 45.7891 52.2437C42.828 54.9152 38.6153 56.6526 33.1415 57.4559C32.3756 57.5867 31.4415 57.6801 30.3205 57.7268C29.1996 57.7735 28.5925 57.7922 28.5084 57.7922C26.3133 57.7922 24.0715 57.5213 21.783 56.9889C17.0284 55.8212 13.2827 53.9811 10.5552 51.4777C7.23918 48.4793 4.96 45.4342 3.727 42.361C2.494 39.2878 1.8775 35.5328 1.8775 31.0959C1.8775 28.9475 2.16707 26.9018 2.75555 24.9776C3.20391 23.455 3.94184 21.7456 4.97868 19.8681C7.12709 16.1037 9.95738 13.2174 13.4509 11.2278C16.9444 9.22882 21.0544 8.23868 25.7622 8.23868C27.4622 8.23868 29.2557 8.36946 31.1425 8.64034L35.1778 9.31289L37.1301 9.64916C39.101 9.92005 40.717 10.0508 41.9687 10.0508C43.4912 10.0508 44.7336 9.88268 45.705 9.54641C46.6671 9.21014 47.6012 8.61232 48.4979 7.7623C48.7688 8.92991 48.8996 10.0508 48.8996 11.125C48.8996 11.7509 48.8809 12.2459 48.8342 12.6009C48.7875 12.9558 48.7034 13.4789 48.5633 14.1515C48.0683 16.3933 47.3957 18.0653 46.5457 19.1582C45.6957 20.2604 44.3973 21.1198 42.6412 21.7456C41.2961 22.194 40.1565 22.4182 39.2131 22.4182C36.7004 22.4182 34.2344 21.0077 31.8151 18.1774L30.8063 16.7669C29.5546 15.0202 28.5551 13.8432 27.8172 13.2361C27.0793 12.6289 26.304 12.33 25.5006 12.33C25.3232 12.33 24.8094 12.3954 23.9501 12.5355C23.1 12.6663 22.3341 13.2454 21.6615 14.2542C20.989 15.263 20.2978 17.0658 19.5785 19.6719C19.2609 20.7929 19.0367 21.8577 18.906 22.8665C18.7752 23.8754 18.7005 25.2298 18.7005 26.9392C18.7005 27.9293 18.7378 29.3958 18.8032 31.3481C18.8686 33.3003 18.906 34.4773 18.906 34.8789L19.0367 36.5603L19.1675 37.84L19.5038 40.4648C19.6813 42.0341 19.8401 43.1643 19.9708 43.8649C20.1016 44.5561 20.3258 45.2847 20.6434 46.0507C21.5401 48.5167 22.7918 50.4035 24.4078 51.7019C25.8836 52.8695 27.5276 53.4487 29.3211 53.4487C30.7129 53.4487 31.9552 53.103 33.0574 52.4025C34.1597 51.7112 34.9723 50.7865 35.5141 49.6469C36.0559 48.5073 36.3174 47.3957 36.3174 46.3215C36.3174 45.0232 35.9811 43.9209 35.3086 43.0242C34.141 41.4549 32.7305 40.6703 31.0678 40.6703C30.2178 40.6703 29.4986 40.8478 28.9194 41.2121C28.826 40.4088 28.9101 39.6054 29.1529 38.8208C29.3958 38.0362 29.8815 37.018 30.6008 35.757C32.2635 32.936 35.3553 31.5162 39.8856 31.5162C42.2582 31.5162 44.3039 32.1888 46.0039 33.5338C47.704 34.8789 48.937 36.7378 49.7029 39.1197L49.6842 39.101Z" fill="#AC1014"/>
<path d="M73.4288 22.549C71.7662 24.2116 70.6079 25.9864 69.9353 27.8919C69.2628 29.7975 68.9265 32.6371 68.9265 36.4015V40.2313C68.9265 44.9391 69.2067 48.1337 69.7672 49.815C70.3277 51.4964 71.5046 53.1217 73.2981 54.691L72.5601 57.5867L71.8222 57.3812L70.6826 57.1757L69.0012 56.9048C65.2369 56.2789 62.5187 55.9614 60.8653 55.9614C59.6136 55.9614 58.5488 56.0828 57.6707 56.335C56.7927 56.5872 55.7558 57.0169 54.5415 57.6427L52.9909 55.2234C54.1585 54.3267 55.0179 53.2805 55.5784 52.0942C56.1388 50.9079 56.5778 49.1892 56.8861 46.9474L57.2878 43.0429V34.8416C57.157 34.2157 57.0636 33.7674 57.0169 33.4965L56.9515 32.9547L56.2789 29.8629C55.9613 28.2002 55.7185 27.1073 55.541 26.5655C55.3635 26.0238 54.9992 25.3512 54.4668 24.5479C54.2426 24.1462 53.9811 23.7726 53.6915 23.4363C53.4019 23.1001 53.0563 22.7264 52.6453 22.3248L53.9904 20.3071C56.5872 21.4747 59.6417 22.0539 63.1352 22.0539C66.8155 22.0539 69.8326 21.4747 72.2145 20.3071L73.4288 22.5303V22.549ZM69.1881 9.49971C69.8139 10.7514 70.1315 11.9844 70.1315 13.1987C70.1315 14.6372 69.7859 15.9263 69.0853 17.0658C68.3941 18.2054 67.404 19.1022 66.1242 19.756C64.8445 20.4099 63.6209 20.7275 62.4626 20.7275C60.8933 20.7275 59.4922 20.2791 58.2592 19.3824C57.0262 18.4857 56.0921 17.206 55.4663 15.5526C55.0646 14.6092 54.8591 13.6938 54.8591 12.797C54.8591 12.4888 54.9245 11.9564 55.0646 11.2184C55.2047 10.4805 55.569 9.69587 56.1762 8.86453C56.7833 8.03319 57.5306 7.33262 58.4273 6.74414C59.679 5.97819 60.9868 5.60455 62.3318 5.60455C63.7703 5.60455 65.0874 5.94083 66.3017 6.61337C67.516 7.28592 68.4782 8.24803 69.1974 9.50905L69.1881 9.49971Z" fill="#AC1014"/>
<path d="M114.986 55.4383C114.491 56.335 113.697 57.0542 112.595 57.5867C111.493 58.1285 110.139 58.39 108.523 58.39C106.598 58.39 104.824 58.0911 103.208 57.4839C101.592 56.8768 100.116 55.8586 98.7706 54.4201C96.2579 51.5992 95.0063 48.7969 95.0063 46.0133C95.0063 45.1633 95.1184 44.2385 95.3425 43.2577C95.4359 42.8094 95.6134 42.1835 95.8843 41.3709L96.8931 38.9516L97.0986 38.6153L99.7234 34.5147C100.527 33.3003 101.106 32.2074 101.442 31.2173C101.778 30.2272 101.947 29.4052 101.947 28.7326C101.947 25.7716 100.443 24.2957 97.4442 24.2957C96.9025 24.2957 96.4821 24.3144 96.1645 24.3611C94.5019 24.632 93.2969 25.6595 92.5309 27.4529C91.6342 29.6013 91.1858 33.0575 91.1858 37.812V41.4456C91.1858 45.3501 91.4941 48.2364 92.1293 50.1233C92.6243 51.6459 93.6985 53.2805 95.3612 55.0366L94.6233 57.6614L92.671 56.9889C91.3727 56.6339 89.9155 56.335 88.2995 56.1108C87.0852 56.0174 86.2165 55.952 85.6747 55.9053C85.1329 55.8586 84.6659 55.8399 84.2642 55.8399C82.7417 55.8399 81.3405 55.9894 80.0608 56.279C78.7811 56.5685 77.4734 57.0542 76.1283 57.7268L74.9887 54.7657C76.0162 53.5981 76.8195 52.3651 77.38 51.0667C77.9404 49.7683 78.3328 48.087 78.5569 46.0226L78.6877 44.2759V40.306L78.6223 37.0741L78.5569 36.4669L78.4262 35.1218C77.9311 31.0865 77.464 28.3497 77.0157 26.9205C76.5673 25.482 75.736 24.0995 74.531 22.7545L75.2036 20.2698L76.6794 20.6714C77.9778 20.989 79.3789 21.2132 80.8828 21.344C82.3867 21.4748 84.9274 21.5495 88.5143 21.5495C89.1402 21.5495 89.9528 21.4841 90.9336 21.344C92.4562 21.0731 93.8667 20.8489 95.1744 20.6714L97.0613 20.4659C101.676 20.4659 105.337 20.9797 108.027 22.0165C110.718 23.044 112.689 24.66 113.95 26.8551C115.201 29.0502 115.836 31.1799 115.836 33.2443C115.836 36.8312 114.043 40.1939 110.456 43.3325L108.84 44.6122C107.318 45.7331 106.271 46.5924 105.711 47.1996C105.15 47.8068 104.749 48.4793 104.497 49.2172C104.254 49.9552 104.123 50.637 104.123 51.2722C104.123 52.8882 104.73 53.9624 105.935 54.5042C106.113 54.5976 106.402 54.635 106.813 54.635C107.841 54.635 108.541 54.1399 108.896 53.1591C108.99 52.8041 109.027 52.4865 109.027 52.2157C109.027 51.3189 108.672 50.3568 107.953 49.32L107.075 48.5167C107.925 47.1716 109.186 46.499 110.839 46.499C111.465 46.499 112.091 46.6111 112.726 46.8353C113.352 47.0595 113.978 47.4425 114.613 47.9749C115.734 48.9183 116.294 50.1233 116.294 51.6085C116.294 52.7761 115.864 54.0558 115.014 55.4383H114.986Z" fill="#AC1014"/>
<path d="M157.086 36.2054L152.378 37.2142L141.617 39.6335L138.526 40.3714L136.573 40.8384L133.612 41.511V43.4632C133.612 47.0501 134.219 49.7403 135.424 51.5338C136.499 53.1498 137.984 53.9531 139.861 53.9531C140.179 53.9064 140.403 53.8877 140.534 53.8877C142.056 53.7102 143.28 53.0657 144.195 51.9728C145.111 50.8706 145.578 49.32 145.578 47.3024C145.578 45.2847 144.952 43.538 143.691 42.3237C144.943 41.156 146.54 40.5769 148.464 40.5769C150.034 40.5769 151.762 41.0066 153.639 41.8566C156.152 43.0709 157.404 44.9484 157.404 47.5079C157.404 49.5722 156.488 51.6085 154.648 53.6261C153.62 54.7471 152.341 55.5971 150.818 56.1856C149.296 56.7647 147.166 57.1944 144.429 57.4653C144.111 57.512 143.822 57.5306 143.551 57.5306H142.878C142.43 57.5306 141.972 57.5213 141.496 57.4933C141.029 57.4746 140.543 57.4559 140.048 57.4559C133.864 57.4559 128.942 55.8493 125.29 52.6454C121.637 49.4414 119.806 45.4155 119.806 40.5769C119.806 37.1208 120.264 34.169 121.189 31.703C122.104 29.237 123.664 27.0606 125.859 25.1831C129.269 22.0446 133.416 20.4753 138.301 20.4753C139.955 20.4753 141.664 20.6808 143.411 21.0824C146.325 21.755 148.67 22.7078 150.435 23.9408C152.21 25.1738 153.742 26.9298 155.04 29.2184C155.713 30.386 156.217 31.5256 156.554 32.6465C156.89 33.7674 157.058 34.9537 157.058 36.2147L157.086 36.2054ZM143.906 29.4799C143.813 28.4898 143.672 27.7238 143.467 27.1634C143.261 26.6029 142.972 26.0518 142.589 25.5194C142.206 24.9776 141.786 24.604 141.309 24.3798C140.842 24.1556 140.338 24.0435 139.796 24.0435C138.582 24.0435 137.507 24.6226 136.564 25.7903C135.985 26.5562 135.518 27.3689 135.182 28.2469C134.845 29.125 134.565 30.2739 134.341 31.7124L133.874 34.6735L133.472 37.4944L141.814 35.5422C142.486 35.4114 143.028 34.991 143.43 34.2998C143.831 33.6086 144.037 32.5811 144.037 31.236C144.037 30.9651 144.018 30.6569 143.971 30.2926C143.925 29.9376 143.906 29.6667 143.906 29.4893V29.4799Z" fill="#AC1014"/>
<path d="M209.012 39.101C209.367 40.4461 209.554 41.6978 209.554 42.8654C209.554 46.4523 208.078 49.5815 205.117 52.2437C202.156 54.9152 197.943 56.6526 192.469 57.4559C191.703 57.5867 190.76 57.6801 189.648 57.7268C188.527 57.7735 187.92 57.7922 187.836 57.7922C185.641 57.7922 183.399 57.5213 181.111 56.9889C176.356 55.8212 172.611 53.9811 169.883 51.4777C166.567 48.4793 164.288 45.4342 163.055 42.361C161.822 39.2878 161.205 35.5328 161.205 31.0959C161.205 28.9475 161.495 26.9018 162.083 24.9776C162.532 23.455 163.27 21.7456 164.306 19.8681C166.455 16.1037 169.285 13.2174 172.779 11.2278C176.272 9.22882 180.382 8.23868 185.09 8.23868C186.79 8.23868 188.584 8.36946 190.47 8.64034L194.506 9.31289L196.458 9.64916C198.429 9.92005 200.045 10.0508 201.296 10.0508C202.819 10.0508 204.061 9.88268 205.033 9.54641C205.995 9.21014 206.929 8.61232 207.826 7.7623C208.097 8.92991 208.227 10.0508 208.227 11.125C208.227 11.7509 208.209 12.2459 208.162 12.6009C208.115 12.9558 208.031 13.4789 207.891 14.1515C207.396 16.3933 206.724 18.0653 205.874 19.1582C205.023 20.2604 203.725 21.1198 201.969 21.7456C200.624 22.194 199.484 22.4182 198.541 22.4182C196.028 22.4182 193.562 21.0077 191.143 18.1774L190.134 16.7669C188.882 15.0202 187.883 13.8432 187.145 13.2361C186.407 12.6289 185.632 12.33 184.828 12.33C184.651 12.33 184.128 12.3954 183.278 12.5355C182.428 12.6663 181.662 13.2454 180.989 14.2542C180.317 15.263 179.626 17.0658 178.906 19.6719C178.589 20.7929 178.365 21.8577 178.234 22.8665C178.103 23.8754 178.028 25.2298 178.028 26.9392C178.028 27.9293 178.066 29.3958 178.131 31.3481C178.196 33.3003 178.234 34.4773 178.234 34.8789L178.365 36.5603L178.495 37.84L178.832 40.4648C179.009 42.0341 179.168 43.1643 179.299 43.8649C179.429 44.5561 179.654 45.2847 179.971 46.0507C180.868 48.5167 182.12 50.4035 183.736 51.7019C185.211 52.8695 186.855 53.4487 188.649 53.4487C190.041 53.4487 191.283 53.103 192.385 52.4025C193.487 51.7112 194.3 50.7865 194.842 49.6469C195.384 48.5073 195.645 47.3957 195.645 46.3215C195.645 45.0232 195.309 43.9209 194.636 43.0242C193.469 41.4549 192.058 40.6703 190.396 40.6703C189.546 40.6703 188.826 40.8478 188.247 41.2121C188.154 40.4088 188.238 39.6054 188.481 38.8208C188.724 38.0362 189.209 37.018 189.929 35.757C191.591 32.936 194.683 31.5162 199.213 31.5162C201.586 31.5162 203.632 32.1888 205.332 33.5338C207.032 34.8789 208.265 36.7378 209.031 39.1197L209.012 39.101Z" fill="#AC1014"/>
<path d="M245.526 30.1525C245.526 31.4508 245.301 32.6558 244.853 33.7487C244.405 34.8509 243.583 36.0092 242.396 37.2422C241.21 38.4752 240.612 39.5587 240.612 40.5022C240.612 41.128 240.93 41.8006 241.556 42.5198C240.752 43.0616 239.828 43.3231 238.8 43.3231C237.679 43.3231 236.54 42.9682 235.372 42.2489C234.382 41.7071 233.569 40.7731 232.915 39.428C232.262 38.0829 231.944 36.8966 231.944 35.8597C231.944 34.1971 232.971 31.9833 235.036 29.1997C235.344 28.8447 235.549 28.1909 235.643 27.2474V26.2386C235.643 25.4353 235.288 24.716 234.569 24.0902C234.12 23.6418 233.56 23.4177 232.887 23.4177C232.037 23.4177 231.337 23.7539 230.804 24.4265C230.272 25.099 229.889 25.7716 229.665 26.4441C229.441 27.1167 229.198 28.2562 228.927 29.8722L228.721 31.6844C228.628 32.4877 228.562 33.5245 228.516 34.7762C228.469 36.0279 228.45 36.8872 228.45 37.3356C228.45 42.7627 228.805 46.6859 229.525 49.1051C230.244 51.5244 231.542 53.7196 233.429 55.6998L231.411 57.5867C230.16 57.1383 228.88 56.7927 227.582 56.5405C226.283 56.2976 224.938 56.1669 223.546 56.1669C220.539 56.1669 218.549 56.2416 217.559 56.4004C216.569 56.5592 215.448 56.9702 214.196 57.6427L212.982 55.0179C214.42 53.4487 215.401 51.786 215.943 50.0392C216.485 48.2925 216.746 45.621 216.746 42.0341C216.746 41.3148 216.737 40.5676 216.709 39.7829C216.69 38.9983 216.672 38.1763 216.672 37.3263V36.5229C216.672 32.441 216.391 29.4706 215.831 27.6117C215.27 25.7529 214.318 24.0809 212.973 22.605L214.112 20.4566L215.588 20.9236C217.652 21.5028 219.399 21.8017 220.838 21.8017C221.865 21.8017 223.462 21.6242 225.611 21.2599C229.067 20.6808 231.44 20.3819 232.738 20.3819C234.625 20.3819 236.138 20.494 237.278 20.7181C238.417 20.9423 239.417 21.3253 240.267 21.8577C242.191 23.0253 243.555 24.2116 244.339 25.426C245.124 26.6403 245.516 28.2095 245.516 30.1338L245.526 30.1525Z" fill="#AC1014"/>
<path d="M287.56 22.2127C286.439 23.2402 285.635 24.3984 285.14 25.6781C284.645 26.9578 284.262 29.0782 284.001 32.03L283.935 33.4404L283.87 33.9822L283.805 37.8867C283.805 42.5945 283.991 45.9105 284.374 47.8441C284.757 49.7683 285.15 51.2629 285.551 52.3184C285.953 53.3739 286.56 54.3454 287.364 55.2421L285.813 57.6614C285.365 57.3905 284.935 57.1663 284.533 56.9888C284.132 56.8114 283.45 56.5779 282.478 56.2789C281.516 55.9894 280.47 55.8399 279.349 55.8399C278.807 55.8399 278.023 55.9053 276.995 56.0454C275.958 56.1762 274.735 56.363 273.296 56.5872L271.615 56.8581C268.345 57.3064 265.403 57.5306 262.806 57.5306C259.574 57.5306 257.015 57.1196 255.109 56.2883C253.204 55.4569 251.597 54.1492 250.299 52.3558C248.73 50.1607 247.945 47.9188 247.945 45.6303C247.945 44.416 248.15 43.1456 248.552 41.8005C248.954 40.4555 249.57 39.2598 250.402 38.2043C251.233 37.1488 252.699 35.813 254.81 34.2064C255.035 33.9822 255.324 33.7393 255.689 33.4685C256.043 33.1976 256.361 32.9734 256.632 32.7959C257.258 32.3008 257.884 31.7871 258.519 31.2453C259.64 30.3019 260.443 29.4425 260.938 28.6579C261.433 27.8733 261.676 27.1633 261.676 26.5375C261.676 25.9957 261.527 25.5754 261.237 25.2578C260.947 24.9402 260.62 24.7908 260.266 24.7908C260.172 24.7908 259.995 24.8375 259.724 24.9215C259.098 25.2391 258.622 25.5474 258.313 25.865L258.183 25.9957L256.903 27.8826C255.829 29.2744 254.661 29.9656 253.409 29.9656C252.158 29.9656 251.055 29.2931 250.252 27.948C249.084 26.0611 248.505 24.3144 248.505 22.6984C248.505 21.7083 248.664 20.8863 248.972 20.2137C249.738 20.7088 250.383 21.0544 250.925 21.2599C251.466 21.4654 252.111 21.5588 252.877 21.5588C253.68 21.5588 255.231 21.3813 257.519 21.017C258.285 21.017 259.042 20.9984 259.808 20.9516C262.227 20.9516 264.235 21.8671 265.823 23.7072C267.411 25.5474 268.215 27.9667 268.215 30.9744C268.215 33.7954 267.495 36.8032 266.066 39.9884C265.749 40.7917 265.403 41.5297 265.02 42.1742C264.637 42.828 264.385 43.2857 264.245 43.5566L262.358 46.7886L262.227 46.9941C262.003 47.5732 261.891 48.1804 261.891 48.8062C261.891 49.0771 261.956 49.6656 262.096 50.5903C262.227 51.5057 262.638 52.3091 263.311 52.9816C263.983 53.6541 264.815 53.9904 265.795 53.9904C266.244 53.9904 266.757 53.8783 267.346 53.6541C268.373 53.2058 269.177 52.5332 269.737 51.6365C270.298 50.7398 270.802 49.2359 271.25 47.1342C271.344 46.7325 271.437 46.1067 271.549 45.2473C271.661 44.3973 271.717 43.3418 271.717 42.0901V37.9241C271.717 36.6257 271.708 35.1778 271.68 33.5899C271.661 32.0019 271.419 30.5261 270.97 29.181C270.251 26.36 269.158 24.1182 267.673 22.4555L269.083 20.4379C270.559 21.1571 272.119 21.5495 273.754 21.6149C275.388 21.6802 277.303 21.7176 279.508 21.7176C280.9 21.7176 282.067 21.6055 283.001 21.3813C283.945 21.1571 285.112 20.8022 286.495 20.3071L287.569 22.2594L287.56 22.2127Z" fill="#AC1014"/>
<path d="M329.865 55.4383C329.37 56.335 328.576 57.0542 327.473 57.5867C326.371 58.1285 325.017 58.39 323.401 58.39C321.476 58.39 319.702 58.0911 318.086 57.4839C316.47 56.8768 314.994 55.8586 313.649 54.4201C311.136 51.5992 309.884 48.7969 309.884 46.0133C309.884 45.1633 309.996 44.2385 310.221 43.2577C310.314 42.8094 310.492 42.1835 310.762 41.3709L311.771 38.9516L311.977 38.6153L314.602 34.5147C315.405 33.3003 315.984 32.2074 316.32 31.2173C316.657 30.2272 316.825 29.4052 316.825 28.7326C316.825 25.7716 315.321 24.2957 312.322 24.2957C311.781 24.2957 311.36 24.3144 311.043 24.3611C309.38 24.632 308.175 25.6595 307.409 27.4529C306.512 29.6013 306.064 33.0575 306.064 37.812V41.4456C306.064 45.3501 306.382 48.2364 307.007 50.1233C307.502 51.6459 308.577 53.2805 310.239 55.0366L309.501 57.6614L307.549 56.9889C306.251 56.6339 304.794 56.335 303.178 56.1108C301.963 56.0174 301.095 55.952 300.553 55.9053C300.011 55.8586 299.544 55.8399 299.142 55.8399C297.62 55.8399 296.219 55.9894 294.939 56.279C293.659 56.5685 292.352 57.0542 291.006 57.7268L289.867 54.7657C290.894 53.5981 291.698 52.3651 292.258 51.0667C292.819 49.7683 293.211 48.087 293.435 46.0226L293.566 44.2759V40.306L293.5 37.0741L293.435 36.4669L293.304 35.1218C292.809 31.0865 292.342 28.3497 291.894 26.9205C291.445 25.482 290.614 24.0995 289.409 22.7545L290.082 20.2698L291.558 20.6714C292.856 20.989 294.257 21.2132 295.761 21.344C297.265 21.4748 299.806 21.5495 303.392 21.5495C304.018 21.5495 304.831 21.4841 305.812 21.344C307.334 21.0731 308.745 20.8489 310.053 20.6714L311.939 20.4659C316.554 20.4659 320.215 20.9797 322.906 22.0165C325.596 23.044 327.567 24.66 328.828 26.8551C330.079 29.0502 330.715 31.1799 330.715 33.2443C330.715 36.8312 328.921 40.1939 325.334 43.3325L323.718 44.6122C322.196 45.7331 321.15 46.5924 320.589 47.1996C320.029 47.8068 319.627 48.4793 319.375 49.2172C319.132 49.9552 319.001 50.637 319.001 51.2722C319.001 52.8882 319.608 53.9624 320.813 54.5042C320.991 54.5976 321.28 54.635 321.691 54.635C322.719 54.635 323.419 54.1399 323.774 53.1591C323.868 52.8041 323.905 52.4865 323.905 52.2157C323.905 51.3189 323.55 50.3568 322.831 49.32L321.953 48.5167C322.803 47.1716 324.064 46.499 325.717 46.499C326.343 46.499 326.969 46.6111 327.604 46.8353C328.23 47.0595 328.856 47.4425 329.491 47.9749C330.612 48.9183 331.172 50.1233 331.172 51.6085C331.172 52.7761 330.743 54.0558 329.893 55.4383H329.865Z" fill="#AC1014"/>
<path d="M372.3 21.5401L372.235 23.427C372.235 24.277 372.198 24.8935 372.132 25.2765C372.067 25.6595 371.917 26.36 371.693 27.3969C371.151 29.6854 370.395 31.3201 369.405 32.3102C368.415 33.3003 367.069 33.7861 365.369 33.7861C364.921 33.7861 364.585 33.7674 364.361 33.7207C363.062 33.7207 361.829 33.1135 360.662 31.9085C359.363 30.5634 358.018 28.3683 356.626 25.3139C356.533 25.1364 356.346 24.9682 356.056 24.8094C355.767 24.6507 355.403 24.5105 354.982 24.3704C354.553 24.2397 354.123 24.1649 353.675 24.1649C352.778 24.1649 352.031 24.6133 351.423 25.51C350.816 26.4067 350.293 27.9106 349.845 30.0123L349.303 33.5058C349.21 34.1317 349.144 34.8696 349.098 35.729C349.051 36.579 349.032 37.429 349.032 38.2884C349.032 40.1752 349.098 41.4923 349.238 42.2583C349.817 47.1903 350.471 50.3475 351.19 51.7393C351.909 53.1311 353.273 53.9157 355.291 54.0932C357.131 54.0932 358.588 53.6261 359.662 52.6827C360.914 51.6085 361.549 50.0392 361.549 47.9749C361.549 47.1716 361.437 46.3869 361.213 45.621C360.989 44.855 360.559 44.005 359.933 43.0616L359.055 41.922C359.634 41.4736 360.241 41.0906 360.867 40.7824C361.493 40.4741 362.081 40.2593 362.614 40.1472C363.156 40.0351 363.576 39.9417 363.894 39.8763C364.211 39.8109 364.585 39.7736 365.033 39.7736C368.218 39.7736 370.619 41.1187 372.226 43.8088C373.029 45.2473 373.44 46.6298 373.44 47.9749C373.44 49.6749 372.786 51.3843 371.488 53.0844C370.909 53.9344 370.049 54.663 368.928 55.2701C367.807 55.8773 366.21 56.4471 364.155 56.9889L362.072 57.4559C361.222 57.6334 360.409 57.7455 359.653 57.7922C358.887 57.8389 357.476 57.8576 355.412 57.8576C352.993 57.5867 351.153 57.3158 349.901 57.0543C348.649 56.7834 347.435 56.3817 346.267 55.8399C342.951 54.4014 340.401 52.664 338.636 50.6277C336.861 48.5914 335.665 46.0226 335.039 42.9308C334.769 41.7632 334.638 40.5302 334.638 39.2318C334.638 37.6625 334.881 35.9625 335.376 34.1223C335.647 32.8706 336.16 31.4975 336.926 30.0217C338.402 27.1073 340.242 24.9122 342.437 23.427C344.633 21.9511 347.482 21.0077 350.975 20.606C352.273 20.4753 353.31 20.4005 354.067 20.4005C354.693 20.4005 355.403 20.4566 356.187 20.5687C356.972 20.6808 357.943 20.8676 359.111 21.1385L360.391 21.4747L362.95 22.0819L364.426 22.4182C365.864 22.6424 366.621 22.7545 366.714 22.7545H367.929C369.629 22.7545 371.086 22.3528 372.3 21.5401Z" fill="#AC1014"/>
<path d="M415.885 54.9058C414.942 57.1009 412.812 58.2032 409.496 58.2032C408.468 58.2032 407.31 58.0724 406.03 57.8015C404.751 57.5306 403.518 56.9702 402.331 56.1202C401.145 55.2701 400.052 54.1025 399.071 52.6267C397.325 50.2074 396.447 47.676 396.447 45.0232C396.447 42.3703 397.39 39.3999 399.268 36.2147L399.94 35.0004C400.519 33.8328 401.024 32.7679 401.453 31.8058C401.883 30.8437 402.088 29.9563 402.088 29.153C402.088 28.1255 401.752 27.2941 401.08 26.6683C400.407 26.0424 399.576 25.7249 398.595 25.7249C398.147 25.7249 397.792 25.7716 397.521 25.8556C396.129 26.2573 394.961 27.2661 394.027 28.8821C393.672 29.5546 393.401 30.2459 393.224 30.9651C393.046 31.6844 392.953 32.6278 392.953 33.7861L392.822 36.2053L392.757 37.2142V38.8955C392.757 41.4923 392.888 43.8649 393.159 45.9946C393.429 48.1243 393.756 49.6843 394.13 50.6651C394.513 51.6552 395.326 52.9256 396.587 54.4948L397.325 55.4383L396.185 57.5213C394.887 57.0262 393.766 56.6619 392.822 56.4097C391.879 56.1669 390.898 56.0361 389.861 56.0361C386.769 56.0361 384.378 56.0828 382.697 56.1669C381.015 56.2603 379.297 56.7086 377.55 57.5119L376.41 55.158C376.989 54.5789 377.513 53.9437 377.961 53.2712C378.409 52.5986 378.858 51.7112 379.306 50.6184C379.754 49.5161 380.044 48.498 380.184 47.5545C380.315 46.6111 380.39 44.9578 380.39 42.5758V33.7674L380.324 31.619L380.193 28.0507C380.193 23.1654 379.792 19.3544 378.979 16.6175C378.353 14.4224 377.251 12.4047 375.682 10.5646L377.158 8.21066C379.67 9.01398 382.295 9.42498 385.023 9.42498C386.947 9.42498 388.993 9.21948 391.141 8.81782L393.766 8.21066L395.718 10.4338C394.55 11.6481 393.747 12.8344 393.299 14.002C392.85 15.1696 392.626 16.8977 392.626 19.1769L392.355 23.1468V23.8847L394.578 22.8105C396.419 22.0072 397.885 21.4561 398.987 21.1665C400.09 20.8769 401.238 20.7275 402.453 20.7275C405.096 20.7275 407.544 21.4 409.785 22.7451C412.027 24.0902 413.709 25.7902 414.829 27.8546C415.81 29.7414 416.305 31.4415 416.305 32.9641C416.305 34.8042 415.605 36.7191 414.222 38.7181C412.831 40.717 410.542 43.127 407.366 45.9479L406.628 46.6858C406.049 47.1342 405.507 47.9375 405.012 49.1051C404.835 49.4601 404.741 49.8898 404.741 50.3848C404.611 51.5524 404.835 52.5332 405.414 53.3459C405.815 53.8877 406.357 54.1492 407.03 54.1492C407.338 54.1492 407.637 54.0838 407.908 53.9437C408.851 53.4954 409.318 52.7294 409.318 51.6552C409.318 51.0761 409.103 50.525 408.683 50.0112C408.253 49.4975 407.684 49.1518 406.964 48.965C407.319 47.1716 408.534 46.2748 410.598 46.2748C411.579 46.2748 412.616 46.499 413.69 46.9474C415.614 47.7133 416.586 49.2826 416.586 51.6552C416.586 52.7294 416.361 53.8036 415.913 54.8871L415.885 54.9058Z" fill="#AC1014"/>
<path d="M47.8161 33.4965C48.171 34.8416 48.3579 36.0932 48.3579 37.2609C48.3579 40.8478 46.882 43.977 43.9209 46.6391C40.9599 49.3106 36.7471 51.048 31.2733 51.8513C30.5074 51.9821 29.5733 52.0755 28.4524 52.1222C27.3315 52.1689 26.7243 52.1876 26.6403 52.1876C24.4451 52.1876 22.2033 51.9167 19.9148 51.3843C15.1603 50.2167 11.4146 48.3765 8.68704 45.8732C5.37102 42.8747 3.09184 39.8296 1.85884 36.7564C0.625838 33.6833 0.00933838 29.9282 0.00933838 25.4913C0.00933838 23.3429 0.298906 21.2973 0.887383 19.373C1.33575 17.8505 2.07368 16.1411 3.11052 14.2636C5.25893 10.4992 8.08922 7.61283 11.5827 5.62322C15.0762 3.62427 19.1862 2.63413 23.894 2.63413C25.5941 2.63413 27.3875 2.7649 29.2744 3.03579L33.3097 3.70834L35.2619 4.04461C37.2328 4.31549 38.8488 4.44627 40.1005 4.44627C41.6231 4.44627 42.8654 4.27813 43.8369 3.94186C44.799 3.60559 45.7331 3.00777 46.6298 2.15775C46.9007 3.32536 47.0314 4.44627 47.0314 5.52047C47.0314 6.14631 47.0128 6.64138 46.9661 6.99633C46.9193 7.35129 46.8353 7.87438 46.6952 8.54692C46.2001 10.7887 45.5276 12.4608 44.6775 13.5536C43.8275 14.6559 42.5291 15.5152 40.773 16.1411C39.428 16.5894 38.2884 16.8136 37.3449 16.8136C34.8322 16.8136 32.3662 15.4031 29.9469 12.5729L28.9381 11.1624C27.6864 9.41563 26.687 8.23867 25.949 7.63151C25.2111 7.02436 24.4358 6.72545 23.6325 6.72545C23.455 6.72545 22.9413 6.79083 22.0819 6.93095C21.2319 7.06172 20.4659 7.64086 19.7934 8.64967C19.1208 9.65849 18.4296 11.4613 17.7103 14.0674C17.3928 15.1883 17.1686 16.2532 17.0378 17.262C16.907 18.2708 16.8323 19.6252 16.8323 21.3346C16.8323 22.3248 16.8697 23.7913 16.9351 25.7435C17.0004 27.6958 17.0378 28.8727 17.0378 29.2744L17.1686 30.9557L17.2993 32.2354L17.6356 34.8602C17.8131 36.4295 17.9719 37.5598 18.1027 38.2603C18.2334 38.9516 18.4576 39.6801 18.7752 40.4461C19.6719 42.9121 20.9236 44.799 22.5396 46.0973C24.0155 47.265 25.6595 47.8441 27.4529 47.8441C28.8447 47.8441 30.087 47.4985 31.1893 46.7979C32.2915 46.1067 33.1042 45.1819 33.6459 44.0424C34.1877 42.9028 34.4492 41.7912 34.4492 40.717C34.4492 39.4186 34.113 38.3164 33.4404 37.4197C32.2728 35.8504 30.8623 35.0657 29.1997 35.0657C28.3496 35.0657 27.6304 35.2432 27.0513 35.6075C26.9578 34.8042 27.0419 34.0009 27.2848 33.2162C27.5276 32.4316 28.0134 31.4135 28.7326 30.1524C30.3953 27.3315 33.4871 25.9117 38.0175 25.9117C40.3901 25.9117 42.4357 26.5842 44.1358 27.9293C45.8358 29.2744 47.0688 31.1332 47.8348 33.5152L47.8161 33.4965Z" fill="#E0C24A"/>
<path d="M71.5607 16.9444C69.898 18.6071 68.7397 20.3819 68.0672 22.2874C67.3946 24.1929 67.0584 27.0326 67.0584 30.797V34.6267C67.0584 39.3345 67.3386 42.5291 67.899 44.2105C68.4595 45.8919 69.6364 47.5172 71.4299 49.0864L70.692 51.9821L69.954 51.7766L68.8144 51.5711L67.1331 51.3002C63.3687 50.6744 60.6505 50.3568 58.9972 50.3568C57.7455 50.3568 56.6806 50.4782 55.8026 50.7304C54.9245 50.9827 53.8877 51.4123 52.6734 52.0382L51.1228 49.6189C52.2904 48.7221 53.1497 47.676 53.7102 46.4897C54.2707 45.3034 54.7097 43.5847 55.0179 41.3428L55.4196 37.4383V29.237C55.2888 28.6112 55.1954 28.1628 55.1487 27.8919L55.0833 27.3502L54.4108 24.2583C54.0932 22.5956 53.8503 21.5028 53.6728 20.961C53.4954 20.4192 53.1311 19.7467 52.5986 18.9434C52.3745 18.5417 52.1129 18.1681 51.8233 17.8318C51.5338 17.4955 51.1882 17.1219 50.7772 16.7202L52.1222 14.7026C54.719 15.8702 57.7735 16.4493 61.267 16.4493C64.9473 16.4493 67.9644 15.8702 70.3463 14.7026L71.5607 16.9257V16.9444ZM67.3199 3.89516C67.9457 5.14684 68.2633 6.37984 68.2633 7.59415C68.2633 9.03265 67.9177 10.3217 67.2171 11.4613C66.5259 12.6009 65.5358 13.4976 64.2561 14.1515C62.9764 14.8053 61.7527 15.1229 60.5945 15.1229C59.0252 15.1229 57.624 14.6746 56.391 13.7778C55.158 12.8811 54.224 11.6014 53.5981 9.94806C53.1965 9.00463 52.991 8.08922 52.991 7.1925C52.991 6.88425 53.0563 6.35181 53.1965 5.61388C53.3366 4.87595 53.7009 4.09132 54.308 3.25998C54.9152 2.42863 55.6625 1.72807 56.5592 1.13959C57.8109 0.373636 59.1186 0 60.4637 0C61.9022 0 63.2192 0.336273 64.4336 1.00882C65.6479 1.68136 66.61 2.64348 67.3292 3.9045L67.3199 3.89516Z" fill="#E0C24A"/>
<path d="M113.118 49.8337C112.623 50.7304 111.829 51.4497 110.727 51.9821C109.625 52.5239 108.27 52.7854 106.654 52.7854C104.73 52.7854 102.955 52.4865 101.339 51.8794C99.7235 51.2722 98.2476 50.2541 96.9025 48.8156C94.3898 45.9946 93.1382 43.1923 93.1382 40.4087C93.1382 39.5587 93.2503 38.634 93.4744 37.6532C93.5678 37.2048 93.7453 36.579 94.0162 35.7663L95.025 33.347L95.2305 33.0108L97.8553 28.9101C98.6586 27.6958 99.2378 26.6029 99.574 25.6128C99.9103 24.6226 100.078 23.8006 100.078 23.1281C100.078 20.167 98.5746 18.6912 95.5761 18.6912C95.0344 18.6912 94.614 18.7098 94.2964 18.7565C92.6338 19.0274 91.4288 20.0549 90.6628 21.8484C89.7661 23.9968 89.3177 27.4529 89.3177 32.2074V35.841C89.3177 39.7455 89.626 42.6319 90.2612 44.5187C90.7562 46.0413 91.8304 47.676 93.4931 49.4321L92.7552 52.0569L90.8029 51.3843C89.5045 51.0294 88.0474 50.7304 86.4314 50.5063C85.2171 50.4129 84.3484 50.3475 83.8066 50.3008C83.2648 50.2541 82.7978 50.2354 82.3961 50.2354C80.8736 50.2354 79.4724 50.3848 78.1927 50.6744C76.913 50.964 75.6053 51.4497 74.2602 52.1222L73.1206 49.1612C74.1481 47.9936 74.9514 46.7606 75.5119 45.4622C76.0723 44.1638 76.4646 42.4824 76.6888 40.4181L76.8196 38.6713V34.7015L76.7542 31.4695L76.6888 30.8623L76.5581 29.5173C76.063 25.482 75.5959 22.7451 75.1476 21.3159C74.6992 19.8774 73.8679 18.495 72.6629 17.1499L73.3354 14.6652L74.8113 15.0669C76.1097 15.3845 77.5108 15.6087 79.0147 15.7394C80.5186 15.8702 83.0593 15.9449 86.6462 15.9449C87.2721 15.9449 88.0847 15.8795 89.0655 15.7394C90.5881 15.4685 91.9986 15.2444 93.3063 15.0669L95.1932 14.8614C99.8076 14.8614 103.469 15.3751 106.159 16.412C108.85 17.4395 110.82 19.0554 112.082 21.2506C113.333 23.4457 113.968 25.5754 113.968 27.6397C113.968 31.2266 112.175 34.5894 108.588 37.7279L106.972 39.0076C105.449 40.1285 104.403 40.9879 103.843 41.595C103.282 42.2022 102.881 42.8747 102.629 43.6127C102.386 44.3506 102.255 45.0325 102.255 45.6677C102.255 47.2837 102.862 48.3579 104.067 48.8996C104.244 48.993 104.534 49.0304 104.945 49.0304C105.973 49.0304 106.673 48.5353 107.028 47.5545C107.121 47.1996 107.159 46.882 107.159 46.6111C107.159 45.7144 106.804 44.7523 106.085 43.7154L105.207 42.9121C106.057 41.567 107.318 40.8945 108.971 40.8945C109.597 40.8945 110.223 41.0066 110.858 41.2307C111.484 41.4549 112.11 41.8379 112.745 42.3703C113.866 43.3138 114.426 44.5187 114.426 46.004C114.426 47.1716 113.996 48.4513 113.146 49.8337H113.118Z" fill="#E0C24A"/>
<path d="M155.218 30.6008L150.51 31.6096L139.749 34.0289L136.657 34.7669L134.705 35.2339L131.744 35.9064V37.8587C131.744 41.4456 132.351 44.1358 133.556 45.9292C134.63 47.5452 136.116 48.3485 137.993 48.3485C138.311 48.3018 138.535 48.2831 138.666 48.2831C140.188 48.1057 141.412 47.4611 142.327 46.3683C143.243 45.266 143.71 43.7154 143.71 41.6978C143.71 39.6802 143.084 37.9334 141.823 36.7191C143.075 35.5515 144.672 34.9723 146.596 34.9723C148.165 34.9723 149.893 35.402 151.771 36.2521C154.284 37.4664 155.535 39.3439 155.535 41.9033C155.535 43.9676 154.62 46.004 152.78 48.0216C151.752 49.1425 150.473 49.9925 148.95 50.581C147.427 51.1601 145.298 51.5898 142.561 51.8607C142.243 51.9074 141.954 51.9261 141.683 51.9261H141.01C140.562 51.9261 140.104 51.9167 139.628 51.8887C139.161 51.87 138.675 51.8514 138.18 51.8514C131.996 51.8514 127.074 50.2447 123.421 47.0408C119.769 43.8369 117.938 39.8109 117.938 34.9723C117.938 31.5162 118.396 28.5645 119.321 26.0985C120.236 23.6325 121.796 21.4561 123.991 19.5785C127.401 16.44 131.548 14.8707 136.433 14.8707C138.087 14.8707 139.796 15.0762 141.543 15.4779C144.457 16.1504 146.802 17.1032 148.567 18.3362C150.342 19.5692 151.874 21.3253 153.172 23.6138C153.845 24.7814 154.349 25.921 154.685 27.0419C155.022 28.1628 155.19 29.3491 155.19 30.6101L155.218 30.6008ZM142.038 23.8754C141.944 22.8852 141.804 22.1193 141.599 21.5588C141.393 20.9984 141.104 20.4472 140.721 19.9148C140.338 19.373 139.917 18.9994 139.441 18.7752C138.974 18.551 138.47 18.439 137.928 18.439C136.713 18.439 135.639 19.0181 134.696 20.1857C134.117 20.9517 133.65 21.7643 133.313 22.6424C132.977 23.5204 132.697 24.6693 132.473 26.1078L132.006 29.0689L131.604 31.8899L139.945 29.9376C140.618 29.8068 141.16 29.3865 141.561 28.6953C141.963 28.004 142.169 26.9765 142.169 25.6314C142.169 25.3606 142.15 25.0523 142.103 24.688C142.056 24.3331 142.038 24.0622 142.038 23.8847V23.8754Z" fill="#E0C24A"/>
<path d="M207.144 33.4965C207.499 34.8416 207.686 36.0932 207.686 37.2609C207.686 40.8478 206.21 43.977 203.249 46.6391C200.288 49.3106 196.075 51.048 190.601 51.8513C189.835 51.9821 188.892 52.0755 187.78 52.1222C186.659 52.1689 186.052 52.1876 185.968 52.1876C183.773 52.1876 181.531 51.9167 179.243 51.3843C174.488 50.2167 170.742 48.3765 168.015 45.8732C164.699 42.8747 162.42 39.8296 161.187 36.7564C159.954 33.6833 159.337 29.9282 159.337 25.4913C159.337 23.3429 159.627 21.2973 160.215 19.373C160.664 17.8505 161.401 16.1411 162.438 14.2636C164.587 10.4992 167.417 7.61283 170.911 5.62322C174.404 3.62427 178.514 2.63413 183.222 2.63413C184.922 2.63413 186.715 2.7649 188.602 3.03579L192.637 3.70834L194.59 4.04461C196.561 4.31549 198.177 4.44627 199.428 4.44627C200.951 4.44627 202.193 4.27813 203.165 3.94186C204.127 3.60559 205.061 3.00777 205.958 2.15775C206.228 3.32536 206.359 4.44627 206.359 5.52047C206.359 6.14631 206.341 6.64138 206.294 6.99633C206.247 7.35129 206.163 7.87438 206.023 8.54692C205.528 10.7887 204.855 12.4608 204.005 13.5536C203.155 14.6559 201.857 15.5152 200.101 16.1411C198.756 16.5894 197.616 16.8136 196.673 16.8136C194.16 16.8136 191.694 15.4031 189.275 12.5729L188.266 11.1624C187.014 9.41563 186.015 8.23867 185.277 7.63151C184.539 7.02436 183.764 6.72545 182.96 6.72545C182.783 6.72545 182.26 6.79083 181.41 6.93095C180.56 7.06172 179.794 7.64086 179.121 8.64967C178.449 9.65849 177.757 11.4613 177.038 14.0674C176.721 15.1883 176.496 16.2532 176.366 17.262C176.235 18.2708 176.16 19.6252 176.16 21.3346C176.16 22.3248 176.197 23.7913 176.263 25.7435C176.328 27.6958 176.366 28.8727 176.366 29.2744L176.496 30.9557L176.627 32.2354L176.963 34.8602C177.141 36.4295 177.3 37.5598 177.43 38.2603C177.561 38.9516 177.785 39.6801 178.103 40.4461C179 42.9121 180.251 44.799 181.867 46.0973C183.343 47.265 184.987 47.8441 186.781 47.8441C188.173 47.8441 189.415 47.4985 190.517 46.7979C191.619 46.1067 192.432 45.1819 192.974 44.0424C193.516 42.9028 193.777 41.7912 193.777 40.717C193.777 39.4186 193.441 38.3164 192.768 37.4197C191.601 35.8504 190.19 35.0657 188.527 35.0657C187.677 35.0657 186.958 35.2432 186.379 35.6075C186.286 34.8042 186.37 34.0009 186.613 33.2162C186.855 32.4316 187.341 31.4135 188.06 30.1524C189.723 27.3315 192.815 25.9117 197.345 25.9117C199.718 25.9117 201.764 26.5842 203.464 27.9293C205.164 29.2744 206.397 31.1332 207.163 33.5152L207.144 33.4965Z" fill="#E0C24A"/>
<path d="M243.657 24.5479C243.657 25.8463 243.433 27.0513 242.985 28.1441C242.537 29.2464 241.715 30.4046 240.528 31.6376C239.342 32.8706 238.744 33.9542 238.744 34.8976C238.744 35.5235 239.062 36.196 239.688 36.9153C238.884 37.457 237.959 37.7186 236.932 37.7186C235.811 37.7186 234.671 37.3636 233.504 36.6444C232.514 36.1026 231.701 35.1685 231.047 33.8234C230.393 32.4783 230.076 31.292 230.076 30.2552C230.076 28.5925 231.103 26.3787 233.168 23.5951C233.476 23.2402 233.681 22.5863 233.775 21.6429V20.6341C233.775 19.8307 233.42 19.1115 232.701 18.4857C232.252 18.0373 231.692 17.8131 231.019 17.8131C230.169 17.8131 229.469 18.1494 228.936 18.8219C228.404 19.4945 228.021 20.167 227.797 20.8396C227.572 21.5121 227.33 22.6517 227.059 24.2677L226.853 26.0798C226.76 26.8831 226.694 27.92 226.648 29.1716C226.601 30.4233 226.582 31.2827 226.582 31.7311C226.582 37.1581 226.937 41.0813 227.656 43.5006C228.376 45.9199 229.674 48.115 231.561 50.0953L229.543 51.9821C228.292 51.5338 227.012 51.1882 225.714 50.936C224.415 50.6931 223.07 50.5623 221.678 50.5623C218.671 50.5623 216.681 50.637 215.691 50.7958C214.701 50.9546 213.58 51.3656 212.328 52.0382L211.114 49.4134C212.552 47.8441 213.533 46.1814 214.075 44.4347C214.617 42.6879 214.878 40.0164 214.878 36.4295C214.878 35.7103 214.869 34.963 214.841 34.1784C214.822 33.3937 214.803 32.5717 214.803 31.7217V30.9184C214.803 26.8364 214.523 23.866 213.963 22.0072C213.402 20.1483 212.449 18.4763 211.104 17.0004L212.244 14.852L213.72 15.3191C215.784 15.8982 217.531 16.1971 218.969 16.1971C219.997 16.1971 221.594 16.0197 223.743 15.6554C227.199 15.0762 229.571 14.7773 230.87 14.7773C232.757 14.7773 234.27 14.8894 235.409 15.1136C236.549 15.3378 237.548 15.7207 238.398 16.2532C240.323 17.4208 241.686 18.6071 242.471 19.8214C243.256 21.0357 243.648 22.605 243.648 24.5292L243.657 24.5479Z" fill="#E0C24A"/>
<path d="M285.691 16.6081C284.571 17.6356 283.767 18.7939 283.272 20.0736C282.777 21.3533 282.394 23.4737 282.133 26.4254L282.067 27.8359L282.002 28.3777L281.936 32.2822C281.936 36.99 282.123 40.306 282.506 42.2396C282.889 44.1638 283.282 45.6583 283.683 46.7138C284.085 47.7694 284.692 48.7408 285.495 49.6375L283.945 52.0568C283.496 51.786 283.067 51.5618 282.665 51.3843C282.263 51.2068 281.581 50.9733 280.61 50.6744C279.648 50.3848 278.602 50.2354 277.481 50.2354C276.939 50.2354 276.154 50.3008 275.127 50.4409C274.09 50.5716 272.866 50.7585 271.428 50.9826L269.747 51.2535C266.477 51.7019 263.535 51.9261 260.938 51.9261C257.706 51.9261 255.147 51.5151 253.241 50.6837C251.336 49.8524 249.729 48.5447 248.431 46.7512C246.861 44.5561 246.077 42.3143 246.077 40.0258C246.077 38.8114 246.282 37.5411 246.684 36.196C247.086 34.8509 247.702 33.6553 248.533 32.5997C249.365 31.5442 250.831 30.2085 252.942 28.6018C253.166 28.3777 253.456 28.1348 253.82 27.8639C254.175 27.593 254.493 27.3688 254.764 27.1914C255.39 26.6963 256.015 26.1825 256.651 25.6408C257.772 24.6973 258.575 23.838 259.07 23.0533C259.565 22.2687 259.808 21.5588 259.808 20.933C259.808 20.3912 259.658 19.9708 259.369 19.6532C259.079 19.3357 258.752 19.1862 258.397 19.1862C258.304 19.1862 258.126 19.2329 257.856 19.317C257.23 19.6346 256.753 19.9428 256.445 20.2604L256.314 20.3912L255.035 22.278C253.96 23.6698 252.793 24.3611 251.541 24.3611C250.289 24.3611 249.187 23.6885 248.384 22.3434C247.216 20.4566 246.637 18.7098 246.637 17.0938C246.637 16.1037 246.796 15.2817 247.104 14.6092C247.87 15.1042 248.515 15.4498 249.056 15.6553C249.598 15.8608 250.243 15.9543 251.009 15.9543C251.812 15.9543 253.363 15.7768 255.651 15.4125C256.417 15.4125 257.174 15.3938 257.94 15.3471C260.359 15.3471 262.367 16.2625 263.955 18.1027C265.543 19.9428 266.346 22.3621 266.346 25.3699C266.346 28.1908 265.627 31.1986 264.198 34.3839C263.88 35.1872 263.535 35.9251 263.152 36.5696C262.769 37.2235 262.517 37.6812 262.377 37.9521L260.49 41.184L260.359 41.3895C260.135 41.9687 260.023 42.5758 260.023 43.2017C260.023 43.4726 260.088 44.061 260.228 44.9858C260.359 45.9012 260.77 46.7045 261.443 47.3771C262.115 48.0496 262.946 48.3859 263.927 48.3859C264.376 48.3859 264.889 48.2738 265.478 48.0496C266.505 47.6012 267.309 46.9287 267.869 46.032C268.429 45.1352 268.934 43.6313 269.382 41.5296C269.476 41.128 269.569 40.5021 269.681 39.6428C269.793 38.7928 269.849 37.7372 269.849 36.4856V32.3195C269.849 31.0211 269.84 29.5733 269.812 27.9853C269.793 26.3974 269.55 24.9215 269.102 23.5764C268.383 20.7555 267.29 18.5137 265.805 16.851L267.215 14.8333C268.691 15.5526 270.251 15.9449 271.886 16.0103C273.52 16.0757 275.435 16.113 277.64 16.113C279.031 16.113 280.199 16.001 281.133 15.7768C282.077 15.5526 283.244 15.1976 284.627 14.7026L285.701 16.6548L285.691 16.6081Z" fill="#E0C24A"/>
<path d="M327.996 49.8337C327.501 50.7304 326.707 51.4497 325.605 51.9821C324.503 52.5239 323.149 52.7854 321.533 52.7854C319.608 52.7854 317.834 52.4865 316.218 51.8794C314.602 51.2722 313.126 50.2541 311.781 48.8156C309.268 45.9946 308.016 43.1923 308.016 40.4087C308.016 39.5587 308.128 38.634 308.353 37.6532C308.446 37.2048 308.623 36.579 308.894 35.7663L309.903 33.347L310.109 33.0108L312.733 28.9101C313.537 27.6958 314.116 26.6029 314.452 25.6128C314.788 24.6226 314.957 23.8006 314.957 23.1281C314.957 20.167 313.453 18.6912 310.454 18.6912C309.912 18.6912 309.492 18.7098 309.175 18.7565C307.512 19.0274 306.307 20.0549 305.541 21.8484C304.644 23.9968 304.196 27.4529 304.196 32.2074V35.841C304.196 39.7455 304.513 42.6319 305.139 44.5187C305.634 46.0413 306.709 47.676 308.371 49.4321L307.633 52.0569L305.681 51.3843C304.383 51.0294 302.926 50.7304 301.31 50.5063C300.095 50.4129 299.227 50.3475 298.685 50.3008C298.143 50.2541 297.676 50.2354 297.274 50.2354C295.752 50.2354 294.351 50.3848 293.071 50.6744C291.791 50.964 290.483 51.4497 289.138 52.1222L287.999 49.1612C289.026 47.9936 289.83 46.7606 290.39 45.4622C290.95 44.1638 291.343 42.4824 291.567 40.4181L291.698 38.6713V34.7015L291.632 31.4695L291.567 30.8623L291.436 29.5173C290.941 25.482 290.474 22.7451 290.026 21.3159C289.577 19.8774 288.746 18.495 287.541 17.1499L288.214 14.6652L289.689 15.0669C290.988 15.3845 292.389 15.6087 293.893 15.7394C295.397 15.8702 297.937 15.9449 301.524 15.9449C302.15 15.9449 302.963 15.8795 303.944 15.7394C305.466 15.4685 306.877 15.2444 308.184 15.0669L310.071 14.8614C314.686 14.8614 318.347 15.3751 321.038 16.412C323.728 17.4395 325.699 19.0554 326.96 21.2506C328.211 23.4457 328.846 25.5754 328.846 27.6397C328.846 31.2266 327.053 34.5894 323.466 37.7279L321.85 39.0076C320.328 40.1285 319.281 40.9879 318.721 41.595C318.16 42.2022 317.759 42.8747 317.507 43.6127C317.264 44.3506 317.133 45.0325 317.133 45.6677C317.133 47.2837 317.74 48.3579 318.945 48.8996C319.123 48.993 319.412 49.0304 319.823 49.0304C320.851 49.0304 321.551 48.5353 321.906 47.5545C322 47.1996 322.037 46.882 322.037 46.6111C322.037 45.7144 321.682 44.7523 320.963 43.7154L320.085 42.9121C320.935 41.567 322.196 40.8945 323.849 40.8945C324.475 40.8945 325.101 41.0066 325.736 41.2307C326.362 41.4549 326.988 41.8379 327.623 42.3703C328.744 43.3138 329.304 44.5187 329.304 46.004C329.304 47.1716 328.875 48.4513 328.025 49.8337H327.996Z" fill="#E0C24A"/>
<path d="M370.432 15.9356L370.367 17.8224C370.367 18.6725 370.329 19.289 370.264 19.6719C370.199 20.0549 370.049 20.7555 369.825 21.7923C369.283 24.0808 368.527 25.7155 367.536 26.7056C366.546 27.6958 365.201 28.1815 363.501 28.1815C363.053 28.1815 362.717 28.1628 362.492 28.1161C361.194 28.1161 359.961 27.509 358.793 26.304C357.495 24.9589 356.15 22.7638 354.758 19.7093C354.665 19.5318 354.478 19.3637 354.188 19.2049C353.899 19.0461 353.534 18.906 353.114 18.7659C352.684 18.6351 352.255 18.5604 351.806 18.5604C350.91 18.5604 350.162 19.0087 349.555 19.9055C348.948 20.8022 348.425 22.3061 347.977 24.4078L347.435 27.9013C347.341 28.5271 347.276 29.265 347.229 30.1244C347.183 30.9744 347.164 31.8245 347.164 32.6838C347.164 34.5707 347.229 35.8878 347.369 36.6537C347.949 41.5857 348.602 44.7429 349.322 46.1347C350.041 47.5265 351.405 48.3112 353.422 48.4886C355.263 48.4886 356.72 48.0216 357.794 47.0782C359.046 46.004 359.681 44.4347 359.681 42.3703C359.681 41.567 359.569 40.7824 359.345 40.0164C359.12 39.2505 358.691 38.4005 358.065 37.457L357.187 36.3174C357.766 35.8691 358.373 35.4861 358.999 35.1778C359.625 34.8696 360.213 34.6548 360.746 34.5427C361.287 34.4306 361.708 34.3372 362.025 34.2718C362.343 34.2064 362.717 34.169 363.165 34.169C366.35 34.169 368.751 35.5141 370.357 38.2043C371.161 39.6428 371.572 41.0252 371.572 42.3703C371.572 44.0704 370.918 45.7798 369.62 47.4798C369.04 48.3298 368.181 49.0584 367.06 49.6656C365.939 50.2727 364.342 50.8425 362.287 51.3843L360.204 51.8514C359.354 52.0288 358.541 52.1409 357.785 52.1876C357.019 52.2343 355.608 52.253 353.544 52.253C351.125 51.9821 349.284 51.7112 348.033 51.4497C346.781 51.1788 345.567 50.7771 344.399 50.2354C341.083 48.7969 338.533 47.0595 336.768 45.0232C334.993 42.9868 333.797 40.4181 333.171 37.3262C332.9 36.1586 332.77 34.9256 332.77 33.6273C332.77 32.058 333.013 30.3579 333.508 28.5178C333.778 27.2661 334.292 25.893 335.058 24.4171C336.534 21.5028 338.374 19.3076 340.569 17.8224C342.764 16.3466 345.613 15.4031 349.107 15.0015C350.405 14.8707 351.442 14.796 352.199 14.796C352.825 14.796 353.534 14.852 354.319 14.9641C355.104 15.0762 356.075 15.263 357.243 15.5339L358.523 15.8702L361.082 16.4774L362.558 16.8136C363.996 17.0378 364.753 17.1499 364.846 17.1499H366.061C367.761 17.1499 369.218 16.7482 370.432 15.9356Z" fill="#E0C24A"/>
<path d="M414.017 49.3013C413.073 51.4964 410.944 52.5986 407.628 52.5986C406.6 52.5986 405.442 52.4678 404.162 52.197C402.882 51.9261 401.649 51.3656 400.463 50.5156C399.277 49.6656 398.184 48.498 397.203 47.0221C395.456 44.6028 394.578 42.0714 394.578 39.4186C394.578 36.7658 395.522 33.7954 397.399 30.6101L398.072 29.3958C398.651 28.2282 399.155 27.1633 399.585 26.2012C400.015 25.2391 400.22 24.3517 400.22 23.5484C400.22 22.5209 399.884 21.6896 399.211 21.0637C398.539 20.4379 397.708 20.1203 396.727 20.1203C396.278 20.1203 395.923 20.167 395.653 20.2511C394.261 20.6527 393.093 21.6616 392.159 23.2775C391.804 23.9501 391.533 24.6413 391.356 25.3605C391.178 26.0798 391.085 27.0232 391.085 28.1815L390.954 30.6008L390.889 31.6096V33.291C390.889 35.8877 391.019 38.2603 391.29 40.3901C391.561 42.5198 391.888 44.0797 392.262 45.0605C392.645 46.0506 393.457 47.321 394.718 48.8903L395.456 49.8337L394.317 51.9167C393.018 51.4217 391.898 51.0574 390.954 50.8052C390.011 50.5623 389.03 50.4315 387.993 50.4315C384.901 50.4315 382.51 50.4782 380.829 50.5623C379.147 50.6557 377.428 51.1041 375.682 51.9074L374.542 49.5535C375.121 48.9743 375.644 48.3392 376.093 47.6666C376.541 46.9941 376.989 46.1067 377.438 45.0138C377.886 43.9116 378.176 42.8934 378.316 41.95C378.447 41.0066 378.521 39.3532 378.521 36.9713V28.1628L378.456 26.0144L378.325 22.4462C378.325 17.5609 377.924 13.7498 377.111 11.0129C376.485 8.81781 375.383 6.80017 373.814 4.96002L375.289 2.60611C377.802 3.40943 380.427 3.82043 383.154 3.82043C385.079 3.82043 387.124 3.61493 389.273 3.21327L391.898 2.60611L393.85 4.82924C392.682 6.04356 391.879 7.22986 391.43 8.39747C390.982 9.56508 390.758 11.2931 390.758 13.5723L390.487 17.5422V18.2801L392.71 17.2059C394.55 16.4026 396.017 15.8515 397.119 15.5619C398.221 15.2724 399.37 15.1229 400.585 15.1229C403.228 15.1229 405.675 15.7955 407.917 17.1406C410.159 18.4856 411.84 20.1857 412.961 22.25C413.942 24.1369 414.437 25.8369 414.437 27.3595C414.437 29.1997 413.737 31.1145 412.354 33.1135C410.962 35.1124 408.674 37.5224 405.498 40.3434L404.76 41.0813C404.181 41.5296 403.639 42.333 403.144 43.5006C402.966 43.8555 402.873 44.2852 402.873 44.7803C402.742 45.9479 402.966 46.9287 403.546 47.7414C403.947 48.2831 404.489 48.5447 405.162 48.5447C405.47 48.5447 405.769 48.4793 406.04 48.3392C406.983 47.8908 407.45 47.1249 407.45 46.0506C407.45 45.4715 407.235 44.9204 406.815 44.4066C406.385 43.8929 405.815 43.5473 405.096 43.3605C405.451 41.567 406.665 40.6703 408.73 40.6703C409.711 40.6703 410.747 40.8945 411.822 41.3428C413.746 42.1088 414.717 43.6781 414.717 46.0506C414.717 47.1249 414.493 48.1991 414.045 49.2826L414.017 49.3013Z" fill="#E0C24A"/>
</g>
<defs>
<clipPath id="clip0_128027_322">
<rect width="416.558" height="58.3993" fill="white"/>
</clipPath>
</defs>
</svg>
